<?xml version="1.0" encoding="utf-8"?>
<!-- Generator: Adobe Illustrator 19.1.0, SVG Export Plug-In . SVG Version: 6.00 Build 0)  -->
<svg version="1.1" id="Layer_1" xmlns="http://www.w3.org/2000/svg" xmlns:xlink="http://www.w3.org/1999/xlink" x="0px" y="0px"
	 viewBox="0 0 288.8 47.6" style="enable-background:new 0 0 288.8 47.6;" xml:space="preserve">
<style type="text/css">
	.st0{fill:#808285;}
	.st1{fill:#414042;}
</style>
<path class="st0" d="M21.6,1.5h5.5l6.1,15.9l6.1-15.9h5.5l-7.9,19.9l7.9,18.9l15.5-39h6.3L47.3,47h-5l-9.1-21.6L24.1,47h-5L0,1.3
	h6.2l15.5,39l7.8-18.9L21.6,1.5z"/>
<path class="st0" d="M70.8,7.1V0h5.7v7.1H70.8z M70.8,47V13.4h5.7V47H70.8z"/>
<path class="st0" d="M108.4,47L96.8,30.6l-6.4,6.1V47h-5.7V0h5.7v30.9l17.3-17.4h6.2l-13.4,13.9l14,19.6H108.4z"/>
<path class="st1" d="M118.5,7.1V0h5.7v7.1H118.5z M118.5,47V13.4h5.7V47H118.5z"/>
<path class="st1" d="M133.5,47V1.3h19.1c2,0,3.9,0.4,5.6,1.3c1.7,0.8,3.2,2,4.4,3.3c1.2,1.4,2.2,3,2.9,4.7s1,3.5,1,5.3
	c0,1.9-0.3,3.7-1,5.5c-0.6,1.8-1.6,3.3-2.7,4.7c-1.2,1.4-2.6,2.5-4.2,3.3c-1.7,0.8-3.5,1.2-5.5,1.2h-13.6V47H133.5z M139.3,25.4
	h13.3c1.2,0,2.3-0.2,3.3-0.7c1-0.5,1.8-1.2,2.5-2.1c0.7-0.9,1.2-1.9,1.6-3.1c0.4-1.2,0.6-2.4,0.6-3.7c0-1.3-0.2-2.6-0.7-3.7
	c-0.5-1.2-1.1-2.2-1.8-3c-0.8-0.9-1.6-1.5-2.6-2c-1-0.5-2.1-0.7-3.2-0.7h-12.9V25.4z"/>
<path class="st1" d="M180.2,47.6c-1.7,0-3.2-0.3-4.6-0.8c-1.4-0.5-2.6-1.3-3.7-2.2s-1.8-2-2.4-3.3c-0.6-1.3-0.9-2.6-0.9-4
	c0-1.6,0.3-3,1-4.3c0.7-1.3,1.7-2.4,2.9-3.3c1.3-0.9,2.8-1.6,4.5-2.1c1.7-0.5,3.6-0.7,5.7-0.7c1.6,0,3.3,0.2,5,0.5
	c1.7,0.3,3.2,0.7,4.4,1.2v-2.7c0-2.7-0.8-4.9-2.3-6.5c-1.5-1.6-3.7-2.4-6.6-2.4c-3.4,0-7,1.3-10.7,3.9l-1.9-3.7
	c2.2-1.5,4.4-2.6,6.5-3.3c2.1-0.7,4.4-1.1,6.7-1.1c4.3,0,7.7,1.2,10.2,3.5c2.5,2.4,3.7,5.7,3.7,10V40c0,1.3,0.6,2,1.8,2.1V47
	c-0.4,0.1-0.8,0.1-1.2,0.2c-0.4,0-0.8,0.1-1.1,0.1c-0.9,0-1.9-0.3-2.8-0.8c-0.9-0.5-1.4-1.4-1.5-2.6l-0.1-2.4
	c-0.8,1-1.7,1.9-2.6,2.7c-1,0.8-2,1.4-3.2,1.9c-1.1,0.5-2.3,0.9-3.4,1.2C182.5,47.5,181.4,47.6,180.2,47.6z M181.6,43.4
	c1.8,0,3.6-0.4,5.3-1.2c1.7-0.8,3.1-1.7,4.1-2.8c0.8-0.9,1.2-1.8,1.2-2.6v-5c-1.3-0.5-2.7-0.9-4.2-1.2c-1.5-0.3-2.9-0.4-4.3-0.4
	c-2.9,0-5.3,0.6-7,1.8c-1.8,1.2-2.6,2.8-2.6,4.9c0,0.9,0.2,1.7,0.5,2.5c0.3,0.8,0.8,1.5,1.5,2.1c0.6,0.6,1.4,1.1,2.4,1.4
	C179.3,43.2,180.4,43.4,181.6,43.4z"/>
<path class="st1" d="M220.3,47.6c-2.3,0-4.5-0.5-6.4-1.4c-2-0.9-3.7-2.2-5.1-3.8c-1.4-1.6-2.5-3.4-3.3-5.5c-0.8-2.1-1.2-4.3-1.2-6.6
	c0-2.4,0.4-4.6,1.1-6.7c0.8-2.1,1.8-4,3.2-5.6c1.4-1.6,3-2.8,4.8-3.8c1.9-0.9,3.9-1.4,6.1-1.4c2.7,0,5.1,0.7,7.2,2.1
	c2.1,1.4,3.8,3.1,5.1,5.2V0h5.7v40c0,1.3,0.6,2,1.8,2.1V47c-0.5,0.1-0.9,0.1-1.3,0.2c-0.4,0-0.7,0.1-1,0.1c-1.3,0-2.3-0.3-3.1-1
	c-0.8-0.7-1.2-1.5-1.2-2.4l-0.1-3.2c-1.3,2.2-3.1,3.9-5.3,5.1C225,47,222.7,47.6,220.3,47.6z M221.6,42.8c1,0,2.1-0.2,3.2-0.6
	c1.1-0.4,2.1-0.9,3.1-1.6c1-0.7,1.8-1.5,2.5-2.4c0.7-0.9,1.2-1.9,1.4-2.9v-9.7c-0.4-1.1-1-2.1-1.7-3.1s-1.6-1.8-2.6-2.5
	c-1-0.7-2-1.3-3.1-1.7c-1.1-0.4-2.2-0.6-3.3-0.6c-1.7,0-3.2,0.4-4.5,1.1c-1.4,0.7-2.5,1.7-3.5,2.8c-1,1.2-1.7,2.5-2.2,4.1
	c-0.5,1.5-0.8,3.1-0.8,4.7c0,1.7,0.3,3.3,0.9,4.8c0.6,1.5,1.4,2.8,2.4,4c1,1.1,2.2,2,3.6,2.7C218.5,42.4,220,42.8,221.6,42.8z"/>
<path class="st0" d="M246.3,7.1V0h5.7v7.1H246.3z M246.3,47V13.4h5.7V47H246.3z"/>
<path class="st0" d="M269.3,47.6c-1.7,0-3.2-0.3-4.6-0.8c-1.4-0.5-2.6-1.3-3.7-2.2s-1.8-2-2.4-3.3c-0.6-1.3-0.9-2.6-0.9-4
	c0-1.6,0.3-3,1-4.3c0.7-1.3,1.7-2.4,2.9-3.3c1.3-0.9,2.8-1.6,4.5-2.1c1.7-0.5,3.6-0.7,5.7-0.7c1.6,0,3.3,0.2,5,0.5
	c1.7,0.3,3.2,0.7,4.4,1.2v-2.7c0-2.7-0.8-4.9-2.3-6.5c-1.5-1.6-3.7-2.4-6.6-2.4c-3.4,0-7,1.3-10.7,3.9l-1.9-3.7
	c2.2-1.5,4.4-2.6,6.5-3.3c2.1-0.7,4.4-1.1,6.7-1.1c4.3,0,7.7,1.2,10.2,3.5c2.5,2.4,3.7,5.7,3.7,10V40c0,1.3,0.6,2,1.8,2.1V47
	c-0.4,0.1-0.8,0.1-1.2,0.2c-0.4,0-0.8,0.1-1.1,0.1c-0.9,0-1.9-0.3-2.8-0.8c-0.9-0.5-1.4-1.4-1.5-2.6l-0.1-2.4
	c-0.8,1-1.7,1.9-2.6,2.7c-1,0.8-2,1.4-3.2,1.9c-1.1,0.5-2.3,0.9-3.4,1.2C271.6,47.5,270.5,47.6,269.3,47.6z M270.7,43.4
	c1.8,0,3.6-0.4,5.3-1.2c1.7-0.8,3.1-1.7,4.1-2.8c0.8-0.9,1.2-1.8,1.2-2.6v-5c-1.3-0.5-2.7-0.9-4.2-1.2c-1.5-0.3-2.9-0.4-4.3-0.4
	c-2.9,0-5.3,0.6-7,1.8c-1.8,1.2-2.6,2.8-2.6,4.9c0,0.9,0.2,1.7,0.5,2.5c0.3,0.8,0.8,1.5,1.5,2.1c0.6,0.6,1.4,1.1,2.4,1.4
	C268.5,43.2,269.5,43.4,270.7,43.4z"/>
</svg>
