<?xml version="1.0" encoding="utf-8"?>
<!-- Generator: Adobe Illustrator 19.1.0, SVG Export Plug-In . SVG Version: 6.00 Build 0)  -->
<svg version="1.1" id="Layer_1" xmlns="http://www.w3.org/2000/svg" xmlns:xlink="http://www.w3.org/1999/xlink" x="0px" y="0px"
	 viewBox="0 0 512 512" style="enable-background:new 0 0 512 512;" xml:space="preserve">
<style type="text/css">
	.st0{display:none;}
</style>
<path class="st0" d="M496.1,435.7L374.9,332.6c-12.5-11.3-25.9-16.5-36.8-16c28.6-33.5,45.9-77,45.9-124.6C384,86,298,0,192,0
	C86,0,0,86,0,192s86,192,192,192c47.5,0,91.1-17.3,124.6-45.9c-0.5,10.8,4.7,24.2,16,36.8l103.1,121.3c17.7,19.6,46.5,21.3,64.1,3.7
	C517.4,482.2,515.8,453.4,496.1,435.7z M192,320c-70.7,0-128-57.3-128-128c0-70.7,57.3-128,128-128c70.7,0,128,57.3,128,128
	C320,262.7,262.7,320,192,320z"/>
<path class="st0" d="M466.9,305.1C440,258.6,456.2,199,503,171.9l-50.3-87.1C438.3,93.2,421.6,98,403.7,98
	c-53.8,0-97.4-43.9-97.4-98H205.8c0.1,16.7-4,33.6-13,49.1c-26.9,46.5-86.6,62.4-133.4,35.4L9,171.7c14.5,8.2,27,20.3,35.9,35.7
	c26.8,46.5,10.8,106-35.9,133.1l50.3,87.1c14.3-8.4,31-13.1,48.7-13.1c53.6,0,97.1,43.6,97.4,97.5h100.6c0-16.5,4.1-33.3,13-48.6
	c26.8-46.5,86.4-62.3,133.2-35.5l50.3-87.1C488.2,332.5,475.8,320.5,466.9,305.1L466.9,305.1z M256,359.7
	c-57.3,0-103.7-46.4-103.7-103.7S198.7,152.3,256,152.3S359.7,198.7,359.7,256S313.2,359.7,256,359.7z"/>
<g>
	<g>
		<path d="M464.2,225.5l47.8-27.6c-7.7-34.2-22.1-65.9-41.7-93.6l-48.6,11.2l-46.7-44.3L386,27.9c-21.5-12.3-45-21.7-69.8-27.5l0,0
			L289,47.7l-63.5-1.4L197.4,0c-26.1,6-50.7,15.8-73.2,28.9L137,74.1l-43.8,43.5l-50.8-14.1C22.4,131.3,7.8,163.1,0,197.6l48.4,28
			v62.6L0.3,315.9c6.1,26,16,50.6,29.2,73L77,378l46.7,44.3l-13.4,52.2c25.6,17.1,54.4,29.9,85.3,37.1l27.2-47.3l63.5,1.4l28.2,46.2
			c31-7.1,59.9-19.6,85.6-36.6l-14.8-52.2l43.8-43.5l50.3,14c14.7-23.8,25.7-50.1,32.2-78.2l-47.4-27.4V225.5z M255.7,400.4
			c-81.6,0-147.7-64.8-147.7-144.7s66.1-144.7,147.7-144.7s147.7,64.8,147.7,144.7S337.3,400.4,255.7,400.4z"/>
	</g>
</g>
</svg>
