<?xml version="1.0" encoding="utf-8"?>
<!-- Generator: Adobe Illustrator 19.1.0, SVG Export Plug-In . SVG Version: 6.00 Build 0)  -->
<svg version="1.1" id="Layer_1" xmlns="http://www.w3.org/2000/svg" xmlns:xlink="http://www.w3.org/1999/xlink" x="0px" y="0px"
	 viewBox="0 0 512 512" style="enable-background:new 0 0 512 512;" xml:space="preserve">
<style type="text/css">
	.st0{display:none;}
	.st1{display:inline;fill:none;stroke:#B35047;}
	.st2{display:inline;}
</style>
<g id="svgGrid" class="st0">
	<line class="st1" x1="32" y1="0" x2="32" y2="512"/>
	<line class="st1" x1="64" y1="0" x2="64" y2="512"/>
	<line class="st1" x1="96" y1="0" x2="96" y2="512"/>
	<line class="st1" x1="128" y1="0" x2="128" y2="512"/>
	<line class="st1" x1="160" y1="0" x2="160" y2="512"/>
	<line class="st1" x1="192" y1="0" x2="192" y2="512"/>
	<line class="st1" x1="224" y1="0" x2="224" y2="512"/>
	<line class="st1" x1="256" y1="0" x2="256" y2="512"/>
	<line class="st1" x1="288" y1="0" x2="288" y2="512"/>
	<line class="st1" x1="320" y1="0" x2="320" y2="512"/>
	<line class="st1" x1="352" y1="0" x2="352" y2="512"/>
	<line class="st1" x1="384" y1="0" x2="384" y2="512"/>
	<line class="st1" x1="416" y1="0" x2="416" y2="512"/>
	<line class="st1" x1="448" y1="0" x2="448" y2="512"/>
	<line class="st1" x1="480" y1="0" x2="480" y2="512"/>
	<line class="st1" x1="0" y1="32" x2="512" y2="32"/>
	<line class="st1" x1="0" y1="64" x2="512" y2="64"/>
	<line class="st1" x1="0" y1="96" x2="512" y2="96"/>
	<line class="st1" x1="0" y1="128" x2="512" y2="128"/>
	<line class="st1" x1="0" y1="160" x2="512" y2="160"/>
	<line class="st1" x1="0" y1="192" x2="512" y2="192"/>
	<line class="st1" x1="0" y1="224" x2="512" y2="224"/>
	<line class="st1" x1="0" y1="256" x2="512" y2="256"/>
	<line class="st1" x1="0" y1="288" x2="512" y2="288"/>
	<line class="st1" x1="0" y1="320" x2="512" y2="320"/>
	<line class="st1" x1="0" y1="352" x2="512" y2="352"/>
	<line class="st1" x1="0" y1="384" x2="512" y2="384"/>
	<line class="st1" x1="0" y1="416" x2="512" y2="416"/>
	<line class="st1" x1="0" y1="448" x2="512" y2="448"/>
	<line class="st1" x1="0" y1="480" x2="512" y2="480"/>
	<rect class="st1" width="512" height="512"/>
</g>
<g class="st0">
	<path class="st2" d="M32,448h448c17.7,0,32-14.3,32-32s-14.3-32-32-32H32c-17.7,0-32,14.3-32,32S14.3,448,32,448z"/>
	<path class="st2" d="M32,128h448c17.7,0,32-14.3,32-32s-14.3-32-32-32H32C14.3,64,0,78.3,0,96S14.3,128,32,128z"/>
	<path class="st2" d="M32,288h448c17.7,0,32-14.3,32-32s-14.3-32-32-32H32c-17.7,0-32,14.3-32,32S14.3,288,32,288z"/>
</g>
<path class="st0" d="M496.1,435.7L374.9,332.6c-12.5-11.3-25.9-16.5-36.8-16c28.6-33.5,45.9-77,45.9-124.6C384,86,298,0,192,0
	C86,0,0,86,0,192s86,192,192,192c47.5,0,91.1-17.3,124.6-45.9c-0.5,10.8,4.7,24.2,16,36.8l103.1,121.3c17.7,19.6,46.5,21.3,64.1,3.7
	C517.4,482.2,515.8,453.4,496.1,435.7z M192,320c-70.7,0-128-57.3-128-128c0-70.7,57.3-128,128-128c70.7,0,128,57.3,128,128
	C320,262.7,262.7,320,192,320z"/>
<g>
	<path d="M437.1,391.7L301.3,256l135.6-135.9c12.5-12.5,12.5-32.8,0-45.3c-12.5-12.5-32.8-12.5-45.3,0L256,210.8L120.2,75.1
		c-12.5-12.5-32.8-12.5-45.3,0s-12.5,32.8,0,45.3l135.9,135.8L75.1,391.8c-12.5,12.5-12.5,32.8,0,45.3c12.5,12.5,32.8,12.5,45.3,0
		l135.8-135.8l135.8,135.6c12.5,12.5,32.8,12.5,45.3,0C449.6,424.4,449.6,404.2,437.1,391.7z"/>
</g>
</svg>
