<?xml version="1.0" encoding="utf-8"?>
<!-- Generator: Adobe Illustrator 15.1.0, SVG Export Plug-In . SVG Version: 6.00 Build 0)  -->
<!DOCTYPE svg PUBLIC "-//W3C//DTD SVG 1.1//EN" "http://www.w3.org/Graphics/SVG/1.1/DTD/svg11.dtd">
<svg version="1.1" id="Layer_1" xmlns="http://www.w3.org/2000/svg" xmlns:xlink="http://www.w3.org/1999/xlink" x="0px" y="0px"
	 width="512px" height="512px" viewBox="0 0 512 512" enable-background="new 0 0 512 512" xml:space="preserve">
<path d="M496.131,435.698L374.855,332.552c-12.537-11.283-25.944-16.463-36.775-15.963C366.707,283.054,384,239.549,384,192
	C384,85.961,298.039,0,192,0C85.962,0,0,85.961,0,192s85.961,192,192,192c47.549,0,91.054-17.293,124.588-45.922
	c-0.5,10.831,4.68,24.239,15.963,36.776l103.146,121.276c17.661,19.623,46.512,21.276,64.11,3.678S515.754,453.359,496.131,435.698z
	 M192,320c-70.692,0-128-57.308-128-128c0-70.691,57.308-128,128-128c70.691,0,128,57.309,128,128C320,262.692,262.693,320,192,320z
	"/>
</svg>
